<svg width="16" height="16" viewBox="0 0 24 24" fill="none" xmlns="http://www.w3.org/2000/svg">
<path fill-rule="evenodd" clip-rule="evenodd" d="M3.88314 0.489885C4.27893 0.172901 4.75388 0 5.23602 0C5.71816 0 6.19311 0.172901 6.5889 0.489885L6.64647 0.518702L6.67525 0.547518L10.3597 4.35133L10.446 4.43778L10.4173 4.4666C11.234 5.22664 11.2196 6.51619 10.446 7.29064L8.60382 9.13491C8.88807 9.78329 9.65806 11.4403 11.1657 12.8811C12.684 14.3327 14.2708 15.154 14.9364 15.4746L16.7787 13.6303C17.5414 12.8667 18.8943 12.8667 19.6571 13.6303L19.6859 13.688L23.4279 17.4341C24.1907 18.1978 24.1907 19.5234 23.4279 20.287L20.5207 23.1975C19.6571 23.9395 18.4446 24.2061 17.3256 23.8315H17.2968C15.1343 22.985 10.7627 21.065 6.84796 17.146C2.94764 13.2413 0.950707 8.92239 0.169924 6.68549C0.168125 6.68189 0.169025 6.67648 0.169924 6.67108C0.170824 6.66568 0.171723 6.66027 0.169924 6.65667C-0.21507 5.59405 0.0583836 4.36574 0.947109 3.54446L0.918325 3.51564L3.79679 0.547518L3.82557 0.518702L3.88314 0.489885ZM5.43807 1.93069C5.3733 1.87666 5.30494 1.84424 5.23658 1.84424C5.16821 1.84424 5.09985 1.87666 5.03508 1.93069L2.24297 4.78355L2.1854 4.84118C1.85798 5.12214 1.75723 5.67687 1.89756 6.05148C2.59559 8.06145 4.49897 12.2003 8.14382 15.8492C11.7599 19.4693 15.8149 21.2523 17.9018 22.0736C18.4379 22.2537 18.8877 22.1781 19.3123 21.8143L22.1332 18.9902C22.2123 18.911 22.2519 18.8857 22.2519 18.8605C22.2519 18.8353 22.2123 18.8101 22.1332 18.7309L18.3624 14.9559C18.2832 14.8766 18.2508 14.837 18.2184 14.837C18.1861 14.837 18.1537 14.8766 18.0745 14.9559L15.34 17.6935L14.7643 17.4341C14.7643 17.4341 12.242 16.3643 10.1012 14.4083L9.89969 14.2354C7.67607 12.1138 6.61824 9.27896 6.61824 9.27896L6.41675 8.70263L6.84852 8.29919L9.15129 5.99385C9.24623 5.8988 9.21604 5.81419 9.20939 5.79556C9.20823 5.7923 9.20778 5.79106 9.20885 5.79213L9.1225 5.70568L5.43807 1.93069Z" fill="#FFFFFF"/>
</svg>
