<svg id="ico_lipstick" xmlns="http://www.w3.org/2000/svg" width="31.054" height="50.29" viewBox="0 0 31.054 50.29">
  <path id="Rectangle_4_copy" d="M28.783,50.29h0l0-.247v-.874h-.017v0a9.8,9.8,0,0,0,1.381-4.709,8.766,8.766,0,0,0-1.96-4.7H12.452a7.738,7.738,0,0,1,1.531,4.654A6.988,6.988,0,0,1,12.6,49.172l16.156,0,.017.874v.235h0l-17.612-.014-.185-.481a2.005,2.005,0,0,0,.468-.436l.009.788a3.622,3.622,0,0,0,1.146-.962H11.57a1.991,1.991,0,0,0,.207-.45c-.13.219-.234.376-.285.45h-.746l.235.61a1.991,1.991,0,0,1-1.112.337H2a2,2,0,0,1-2-2v-28.5a2.006,2.006,0,0,1,1.856-1.995v.094l8.038.014V17.62a2,2,0,0,1,1.976,2V38.6h-.593c-.1-.073-.163-.109-.164-.11v.11h-.005v.7l.006-.7h.165a5.173,5.173,0,0,1,.593.5v.657h.583a6.382,6.382,0,0,0-.583-.657v-.5h16.3l.006,1.156,0,0h0V38.6a7.736,7.736,0,0,1,2.865,5.812,7.881,7.881,0,0,1-1.074,4.569,4.449,4.449,0,0,1-1.189,1.308ZM.9,21.75V48.243a1,1,0,0,0,1,1H9.886a1,1,0,0,0,1-1V19.665a1,1,0,0,0-1-1H1.9a1,1,0,0,0-1,1v1.4H.868v.679H.9V21.07h9.976v.679H.9ZM11.343,39.757c.184.282.361.577.526.875v7.487a2,2,0,0,1-.093.6,8.784,8.784,0,0,0,1.3-4.27,8.606,8.606,0,0,0-1.207-3.821v-.875Zm-.237-.348h0v.348h.238C11.211,39.555,11.122,39.431,11.106,39.408ZM1.856,17.625h0l.01-15.165a7.6,7.6,0,0,1,.321-1.23C2.391.669,2.745,0,3.27,0a.7.7,0,0,1,.2.032A12.27,12.27,0,0,1,7.793,3.007,26.225,26.225,0,0,1,9.855,5.286L9.893,17.62H2c-.047,0-.1,0-.143.005Z" fill="#fefefe"/>
</svg>
