<svg id="ico_lotion_B" xmlns="http://www.w3.org/2000/svg" width="43.522" height="43.994" viewBox="0 0 43.522 43.994">
  <path id="Shape" d="M28.981,43.994a.879.879,0,0,1-.3-.133.8.8,0,0,0-.239-.11.418.418,0,0,1-.3-.146L1.853,12.909,1.844,12.9a.4.4,0,0,1-.028-.039L1.8,12.828c-.006-.011-.009-.018-.014-.03s-.01-.028-.013-.036l0-.012,0-.014c0-.006,0-.012,0-.018s0-.014,0-.02a.128.128,0,0,1,0-.033v-.036l.1-4-1.7-1.7A.418.418,0,0,1,.037,6.64a2.771,2.771,0,0,1-.015-.8L5.83.032A.107.107,0,0,1,5.908,0c.152,0,.389.259.546.43.04.044.074.08.1.108l1.7,1.7,4-.1h.008a.416.416,0,0,1,.059,0l.017,0a.321.321,0,0,1,.05.012l.023.009a.343.343,0,0,1,.044.02l.021.011a.44.44,0,0,1,.05.036l.006,0,30.7,26.284a.419.419,0,0,1,.146.3,2.007,2.007,0,0,1,.15.661l-14.5,14.5A.056.056,0,0,1,28.981,43.994Zm11.55-16.682-1.864,1.864L28.793,39.05l-1.864,1.864,1.549,1.823.34-.34-.977-.977a.209.209,0,1,1,.295-.3l.977.977.511-.511-.977-.978a.205.205,0,0,1-.061-.147.209.209,0,0,1,.356-.15l.977.978.511-.511-.977-.977a.2.2,0,0,1-.061-.147.209.209,0,0,1,.127-.194.208.208,0,0,1,.228.045l.977.977.511-.511L30.258,39a.205.205,0,0,1-.061-.147.209.209,0,0,1,.356-.15l.977.977.511-.511-.977-.977A.2.2,0,0,1,31,38.041a.209.209,0,0,1,.356-.148l.977.977.511-.511-.977-.977a.2.2,0,0,1-.061-.147.208.208,0,0,1,.355-.15l.977.977.511-.511-.977-.977a.209.209,0,0,1,.147-.357.209.209,0,0,1,.147.06l.977.977.512-.509-.977-.977a.2.2,0,0,1-.061-.147.209.209,0,0,1,.355-.15l.976.987.511-.511-.977-.977a.2.2,0,0,1-.061-.147.208.208,0,0,1,.355-.15l.977.977.511-.511-.977-.977a.206.206,0,0,1-.061-.147.208.208,0,0,1,.355-.147l.977.977.511-.511-.977-.977a.206.206,0,0,1-.061-.147.208.208,0,0,1,.355-.147l.977.977.511-.511-.977-.977a.209.209,0,0,1,.147-.357.209.209,0,0,1,.147.06l.977.977.511-.511-.977-.977a.2.2,0,0,1-.061-.147.208.208,0,0,1,.355-.15l.977.977.511-.511-.977-.977a.208.208,0,0,1,0-.294.208.208,0,0,1,.295,0l.977.977.511-.511-.977-.977a.21.21,0,0,1,.067-.341.209.209,0,0,1,.228.044l.977.977L40.9,30.3l-.977-.978a.208.208,0,0,1,.068-.339.209.209,0,0,1,.227.045L41.2,30l.512-.508-.977-.977a.208.208,0,1,1,.295-.294L42,29.2l.34-.34ZM12.492,4.148,3.7,13.19,26.472,39.913l13.1-12.994ZM8.208,3.387h0L3.223,8.378l-.006,3.75,8.108-8.741H8.208ZM1.527,6.16h0l-.485.485L2.424,8.026l.468-.467,0-.04L1.527,6.16ZM5.482,2.2,1.821,5.866,3.2,7.247,6.864,3.586Zm.777-.781h0l-.484.484,1.36,1.361.04.005.468-.468L6.26,1.423Z" fill="#fff"/>
</svg>
