<svg id="ico_stick" xmlns="http://www.w3.org/2000/svg" width="27.462" height="42.71" viewBox="0 0 27.462 42.71">
  <path id="Shape" d="M15.755,42.71H2a2,2,0,0,1-2-2V7.06a2,2,0,0,1,2-2h.588v.016L15.3,5.1V5.06H2.588L2.571.946a21.611,21.611,0,0,1,12.65,0L15.3,5.06h.453a2,2,0,0,1,2,2v13.4H17.75l.006,7.281V40.71A2,2,0,0,1,15.755,42.71ZM2.871,6.551H2.866A1.708,1.708,0,0,0,1.784,6.9a1.227,1.227,0,0,0-.45.985V39.67a1.538,1.538,0,0,0,1.538,1.538H14.836a1.54,1.54,0,0,0,1.538-1.538V11.943H1.358v-.757H16.374v.757h.034v-.757h-.034V7.9a1.388,1.388,0,0,0-1.538-1.345Zm14.9,34.628h0v-1.49l6.776-.015a1.542,1.542,0,0,0,1.54-1.538V21.762l-8.317-.049,0,11.5,0-5.47V20.457l9.706,0V39.634a1.541,1.541,0,0,1-1.535,1.538Zm0-1.49h-.007l0-6.48.005,6.48Z" fill="#fff"/>
</svg>
