<svg id="logo_barnet" data-name="logo/barnet" xmlns="http://www.w3.org/2000/svg" width="158" height="21" viewBox="0 0 158 21">
  <rect id="logo_barnet_background" data-name="logo/barnet background" width="158" height="21" fill="none"/>
  <g id="logo_barnet-2" data-name="logo_barnet" transform="translate(0.483 0.001)">
    <path id="barnet" d="M106.25,20.688h-2.039L84.652,2.637v18.05H82.613V0h2.039l19.56,18.138V0h2.039V20.688Zm-49.375,0H54.642V0H70.422c.768,0,1.606.034,2.492.1a6.88,6.88,0,0,1,2.521.689,5.082,5.082,0,0,1,2.1,1.978,5.536,5.536,0,0,1,.775,2.886,6.221,6.221,0,0,1-.468,2.3,4.742,4.742,0,0,1-1.731,2.1,5.412,5.412,0,0,1-1.4.732,10.6,10.6,0,0,1-1.555.411,12.477,12.477,0,0,1-1.551.19c-.477.028-.95.052-1.4.073l9.182,9.229H76.308l-9.017-9.23H56.875v9.23ZM69.111,9.728h.124a25.5,25.5,0,0,0,3.1-.191,4.266,4.266,0,0,0,2.482-1.157,3.468,3.468,0,0,0,.839-1.334,4.334,4.334,0,0,0,.258-1.45,3.655,3.655,0,0,0-1.546-3.047,3.962,3.962,0,0,0-1.907-.718c-.685-.068-1.347-.1-1.97-.1H56.875v8ZM29.167,20.688H26.9L38.12,0h2.458L52.091,20.687h-2.36l-2.945-5.362H32.073l-2.906,5.362ZM39.349,1.875h0l-6.4,11.838H45.883L39.349,1.875ZM147.574,20.688H145.4V1.729H135.153V0h22.218V1.729h-9.8Zm-13.518,0h-22.8V0H133.12V1.729H113.492V8.966h18.141V10.7H113.492v8.263h20.564v1.729Zm-116.3,0H0V0H16.488c.458,0,.92.005,1.375.015a8.414,8.414,0,0,1,1.39.146,7.506,7.506,0,0,1,1.361.4,6.041,6.041,0,0,1,1.307.733,4.82,4.82,0,0,1,1.473,1.688A4.69,4.69,0,0,1,23.924,5.2a4.9,4.9,0,0,1-.258,1.556,4.2,4.2,0,0,1-.78,1.409,3.712,3.712,0,0,1-1.58,1.16c-.591.211-1.043.36-1.38.455.309.041.608.081.868.117a4.646,4.646,0,0,1,.97.263,4.992,4.992,0,0,1,2.4,1.887,5.15,5.15,0,0,1,.892,3,6.115,6.115,0,0,1-.5,2.428,4.623,4.623,0,0,1-1.6,1.96,5.107,5.107,0,0,1-1.341.688,10.156,10.156,0,0,1-1.434.38,10,10,0,0,1-1.356.161C18.384,20.678,18.034,20.688,17.761,20.688ZM2.229,10.754h0v8.2H17.717c.284,0,.592-.01.941-.029a6.71,6.71,0,0,0,1.049-.147,4.812,4.812,0,0,0,1.053-.366,4.15,4.15,0,0,0,.97-.659,4.016,4.016,0,0,0,.756-1.084,3.522,3.522,0,0,0,.341-1.611,3.622,3.622,0,0,0-.453-1.949,4.485,4.485,0,0,0-.839-1.04,3.484,3.484,0,0,0-1.244-.747,7.87,7.87,0,0,0-1.57-.4,15.191,15.191,0,0,0-1.536-.147c-.481-.019-.878-.029-1.18-.029H2.229Zm0-9.084h0V9.027H16.166c.325,0,.673-.01,1.034-.029a8.635,8.635,0,0,0,1.1-.132,5.8,5.8,0,0,0,1.1-.324,3.727,3.727,0,0,0,1.034-.635,2.885,2.885,0,0,0,.99-1.441A5.248,5.248,0,0,0,21.6,5.348a3.475,3.475,0,0,0-1.682-3.06,4.364,4.364,0,0,0-.854-.337,6.5,6.5,0,0,0-.941-.192c-.311-.039-.6-.064-.887-.074s-.519-.015-.712-.015H2.229Z" transform="translate(0 0)" fill="#fff"/>
  </g>
</svg>
