<svg id="logo_barnet" xmlns="http://www.w3.org/2000/svg" width="218.128" height="28.569" viewBox="0 0 218.128 28.569">
  <path id="barnet" d="M147.271,28.569h-2.826L117.334,3.642V28.569h-2.826V0h2.826l27.111,25.048V0h2.826V28.569Zm-68.437,0h-3.1V0H97.611c1.065,0,2.227.048,3.454.141a9.563,9.563,0,0,1,3.495.951,7.034,7.034,0,0,1,2.913,2.731,7.624,7.624,0,0,1,1.074,3.986,8.564,8.564,0,0,1-.648,3.176,6.554,6.554,0,0,1-2.4,2.893,7.511,7.511,0,0,1-1.947,1.011,14.733,14.733,0,0,1-2.156.567,17.356,17.356,0,0,1-2.15.263c-.661.038-1.316.072-1.947.1l12.727,12.745h-4.257l-12.5-12.747H78.833V28.569ZM95.792,13.434h.171a35.48,35.48,0,0,0,4.3-.263,5.922,5.922,0,0,0,3.441-1.6,4.787,4.787,0,0,0,1.163-1.842,5.966,5.966,0,0,0,.358-2,5.042,5.042,0,0,0-2.143-4.208,5.5,5.5,0,0,0-2.643-.991c-.949-.094-1.868-.142-2.731-.142H78.833V13.434ZM40.427,28.569H37.284L52.837,0h3.407L72.2,28.568H68.931l-4.083-7.405H44.456l-4.028,7.405ZM54.541,2.59h0L45.666,18.938H63.6L54.541,2.59ZM204.548,28.569h-3.008V2.387H187.333V0h30.8V2.387h-13.58Zm-18.737,0h-31.6V0h30.3V2.387H157.308v10h25.144V14.77H157.308V26.181h28.5v2.387Zm-161.194,0H0V0H22.853c.635,0,1.276.007,1.906.021a11.7,11.7,0,0,1,1.927.2,10.434,10.434,0,0,1,1.886.547,8.382,8.382,0,0,1,1.811,1.012,6.663,6.663,0,0,1,2.042,2.331,6.458,6.458,0,0,1,.737,3.06A6.742,6.742,0,0,1,32.8,9.323a5.793,5.793,0,0,1-1.082,1.945,5.144,5.144,0,0,1-2.19,1.6c-.82.292-1.445.5-1.913.629.429.056.843.112,1.2.161a6.459,6.459,0,0,1,1.345.364A6.916,6.916,0,0,1,33.5,16.629a7.093,7.093,0,0,1,1.237,4.141,8.417,8.417,0,0,1-.7,3.353,6.389,6.389,0,0,1-2.217,2.707,7.088,7.088,0,0,1-1.858.95,14.119,14.119,0,0,1-1.987.525,13.908,13.908,0,0,1-1.879.222C25.481,28.555,25,28.569,24.617,28.569ZM3.089,14.851h0v11.33H24.557c.394,0,.82-.013,1.3-.04a9.332,9.332,0,0,0,1.453-.2,6.686,6.686,0,0,0,1.46-.506,5.754,5.754,0,0,0,1.345-.91,5.545,5.545,0,0,0,1.048-1.5A4.848,4.848,0,0,0,31.64,20.8a4.987,4.987,0,0,0-.628-2.691,6.2,6.2,0,0,0-1.163-1.436,4.833,4.833,0,0,0-1.724-1.032,10.941,10.941,0,0,0-2.176-.546,21.131,21.131,0,0,0-2.129-.2c-.666-.027-1.217-.04-1.636-.04H3.089Zm0-12.544h0v10.16H22.407c.451,0,.933-.014,1.433-.041a12.011,12.011,0,0,0,1.528-.183,8.061,8.061,0,0,0,1.521-.447,5.17,5.17,0,0,0,1.433-.877,3.984,3.984,0,0,0,1.372-1.99,7.222,7.222,0,0,0,.243-1.544A4.794,4.794,0,0,0,27.6,3.159a6.063,6.063,0,0,0-1.183-.466,9.039,9.039,0,0,0-1.3-.265c-.431-.054-.834-.088-1.23-.1s-.72-.02-.987-.02H3.089Z" transform="translate(0 0)" fill="#fff"/>
</svg>
