<svg id="logo_barnet" data-name="logo/barnet" xmlns="http://www.w3.org/2000/svg" width="347" height="46" viewBox="0 0 347 46">
  <g id="logo_barnet-2" data-name="logo_barnet" transform="translate(1.06 0.003)">
    <path id="barnet" d="M233.347,45.317H228.87L185.913,5.777V45.316h-4.477V0h4.477L228.87,39.731V0h4.477V45.316Zm-108.438,0H120V0h34.658c1.687,0,3.528.075,5.472.224a15.14,15.14,0,0,1,5.538,1.509,11.15,11.15,0,0,1,4.616,4.333,12.1,12.1,0,0,1,1.7,6.323,13.6,13.6,0,0,1-1.027,5.038,10.394,10.394,0,0,1-3.8,4.59,11.9,11.9,0,0,1-3.084,1.6,23.323,23.323,0,0,1-3.416.9,27.471,27.471,0,0,1-3.406.417c-1.048.061-2.086.115-3.084.161l20.166,20.217-6.745,0L147.785,25.1H124.909V45.316Zm26.871-24.007h.271a56.156,56.156,0,0,0,6.818-.418,9.379,9.379,0,0,0,5.452-2.535,7.594,7.594,0,0,0,1.842-2.921,9.472,9.472,0,0,0,.568-3.177,8,8,0,0,0-3.395-6.675,8.714,8.714,0,0,0-4.188-1.572c-1.5-.149-2.959-.225-4.327-.225H124.909V21.309ZM64.056,45.316h-4.98L83.72,0h5.4L114.4,45.314l-5.183,0L102.751,33.57H70.439L64.056,45.316ZM86.418,4.108h0L72.356,30.039h28.413L86.418,4.108ZM324.1,45.316h-4.765V3.787H296.824V0h48.8V3.787H324.1Zm-29.688,0H244.346V0h48.012V3.787H249.251V19.641h39.84v3.787h-39.84v18.1h45.163v3.787Zm-255.408,0H0V0H36.21c1.006,0,2.022.011,3.02.033a18.525,18.525,0,0,1,3.053.321,16.518,16.518,0,0,1,2.988.867,13.277,13.277,0,0,1,2.869,1.6,10.566,10.566,0,0,1,3.235,3.7,10.252,10.252,0,0,1,1.167,4.854,10.7,10.7,0,0,1-.568,3.407,9.191,9.191,0,0,1-1.714,3.086,8.15,8.15,0,0,1-3.47,2.54c-1.3.463-2.29.789-3.03,1,.679.089,1.336.177,1.907.256a10.225,10.225,0,0,1,2.131.577,10.96,10.96,0,0,1,5.28,4.134,11.259,11.259,0,0,1,1.96,6.569,13.364,13.364,0,0,1-1.1,5.318,10.132,10.132,0,0,1-3.513,4.294,11.226,11.226,0,0,1-2.945,1.507,22.352,22.352,0,0,1-3.149.833,22.014,22.014,0,0,1-2.977.352C40.374,45.295,39.607,45.316,39.006,45.316ZM4.895,23.557h0V41.528H38.909c.624,0,1.3-.021,2.067-.064a14.772,14.772,0,0,0,2.3-.322,10.587,10.587,0,0,0,2.313-.8A9.116,9.116,0,0,0,47.723,38.9a8.8,8.8,0,0,0,1.66-2.375,7.7,7.7,0,0,0,.75-3.53,7.917,7.917,0,0,0-1-4.269A9.828,9.828,0,0,0,47.3,26.445a7.656,7.656,0,0,0-2.732-1.637,17.321,17.321,0,0,0-3.448-.867,33.445,33.445,0,0,0-3.374-.322c-1.056-.042-1.928-.064-2.592-.064H4.895Zm0-19.9h0V19.774H35.5c.714,0,1.478-.022,2.271-.065a19.011,19.011,0,0,0,2.42-.29,12.762,12.762,0,0,0,2.41-.71,8.19,8.19,0,0,0,2.271-1.39,6.32,6.32,0,0,0,2.174-3.157,11.467,11.467,0,0,0,.386-2.448,7.607,7.607,0,0,0-3.695-6.7,9.6,9.6,0,0,0-1.875-.738,14.309,14.309,0,0,0-2.067-.42c-.684-.086-1.321-.139-1.949-.162s-1.14-.032-1.564-.032H4.895Z" transform="translate(0 0)" fill="#fff"/>
  </g>
</svg>
