<svg xmlns="http://www.w3.org/2000/svg" width="63.083" height="43.331" viewBox="0 0 63.083 43.331">
  <path id="Mail" d="M55.287,43.331a.779.779,0,0,1-.111,0H7.914a.79.79,0,0,1-.111,0c-.044,0-4.392-.021-6.059-1.869C-.375,39.113.033,35.486.037,35.45V7.88c0-.036-.411-3.663,1.706-6.011C3.41.021,7.759,0,7.8,0a.793.793,0,0,1,.111,0H55.175a.787.787,0,0,1,.111,0c.044,0,4.391.021,6.058,1.869,2.118,2.348,1.712,5.975,1.707,6.011V35.45c0,.036.41,3.663-1.707,6.011C59.678,43.309,55.33,43.331,55.287,43.331ZM21.114,21.5,3.138,40.58a8.238,8.238,0,0,0,4.775,1.778H55.175a.616.616,0,0,1,.1,0,6.651,6.651,0,0,0,4.742-1.542L41.957,21.677,34.21,29.345A3.892,3.892,0,0,1,31.493,30.6a3.527,3.527,0,0,1-2.546-1.213c-.011,0-.019.04-.027.093-.011.068-.017.1-.023.1l-.018.015ZM60.969,2.525h0L42.782,20.711l18.349,19.3a8.373,8.373,0,0,0,.892-4.385,1.027,1.027,0,0,1,0-.2h0s0,0,.009.018V7.883c0,.01-.006.012-.008.012a2.474,2.474,0,0,1-.062-.544,14.371,14.371,0,0,0-1-4.825ZM1.062,35.432a1.31,1.31,0,0,1,.05.367,10.247,10.247,0,0,0,1.036,4.023L20.306,20.711,2.08,2.486C1.285,3.839,1.155,6.356,1.1,7.43a2.144,2.144,0,0,1-.04.464s-.005,0-.008-.014V35.45C1.057,35.432,1.061,35.432,1.062,35.432ZM7.186.98A6.934,6.934,0,0,0,3.479,2.053L30.271,28.844l-.033.032.017.006.018.007a2.049,2.049,0,0,0,1.311.55,1.64,1.64,0,0,0,.936-.306,1.064,1.064,0,0,0,.319-.305c-.006,0-.014.007-.023.016L59.586,2.077a9.482,9.482,0,0,0-4.331-1.054c-.054,0-.077,0-.08,0H7.914A6.968,6.968,0,0,0,7.186.98Z" transform="translate(-0.003 0)" fill="#fff"/>
</svg>
