<?xml version="1.0" encoding="UTF-8"?>
<svg width="160px" height="140px" viewBox="0 0 160 140" version="1.1" xmlns="http://www.w3.org/2000/svg" xmlns:xlink="http://www.w3.org/1999/xlink">
    <title>A3CB565E-A576-4DE2-AC9F-BAD04F412D48</title>
    <defs>
        <linearGradient x1="9.11551339%" y1="50%" x2="100%" y2="50%" id="linearGradient-1">
            <stop stop-color="#03A9A5" offset="0%"></stop>
            <stop stop-color="#067C8D" offset="100%"></stop>
        </linearGradient>
        <radialGradient cx="90.7235863%" cy="17.5230978%" fx="90.7235863%" fy="17.5230978%" r="190.285569%" gradientTransform="translate(0.907236,0.175231),scale(1.000000,0.289331),rotate(-70.390359),translate(-0.907236,-0.175231)" id="radialGradient-2">
            <stop stop-color="#125D68" offset="0%"></stop>
            <stop stop-color="#03ADA9" stop-opacity="0" offset="100%"></stop>
        </radialGradient>
        <radialGradient cx="71.4043899%" cy="57.3179348%" fx="71.4043899%" fy="57.3179348%" r="105.362552%" gradientTransform="translate(0.714044,0.573179),scale(1.000000,0.289331),rotate(28.378413),scale(1.000000,3.410195),translate(-0.714044,-0.573179)" id="radialGradient-3">
            <stop stop-color="#125D68" offset="0%"></stop>
            <stop stop-color="#125D68" offset="0%"></stop>
            <stop stop-color="#03ADA9" stop-opacity="0" offset="100%"></stop>
        </radialGradient>
        <rect id="path-4" x="165" y="148" width="1110" height="3020"></rect>
        <filter x="-1.9%" y="-0.6%" width="103.8%" height="101.4%" filterUnits="objectBoundingBox" id="filter-5">
            <feMorphology radius="0.5" operator="dilate" in="SourceAlpha" result="shadowSpreadOuter1"></feMorphology>
            <feOffset dx="0" dy="3" in="shadowSpreadOuter1" result="shadowOffsetOuter1"></feOffset>
            <feGaussianBlur stdDeviation="6" in="shadowOffsetOuter1" result="shadowBlurOuter1"></feGaussianBlur>
            <feColorMatrix values="0 0 0 0 0   0 0 0 0 0   0 0 0 0 0  0 0 0 0.25 0" type="matrix" in="shadowBlurOuter1"></feColorMatrix>
        </filter>
    </defs>
    <g id="Web/Formula" stroke="none" stroke-width="1" fill="none" fill-rule="evenodd">
        <g id="Formula-Detail---Desktop-xl-1440" transform="translate(-367.000000, -2630.000000)">
            <g id="color/@background_gradient">
                <rect id="Background---Linear" fill="url(#linearGradient-1)" x="0" y="0" width="1440" height="4977"></rect>
                <rect id="Background---Radial" fill="url(#radialGradient-2)" x="0" y="0" width="1440" height="4977"></rect>
                <rect id="Background---Radial-Copy" fill="url(#radialGradient-3)" x="0" y="0" width="1440" height="4977"></rect>
            </g>
            <g id="bg_list">
                <use fill="black" fill-opacity="1" filter="url(#filter-5)" xlink:href="#path-4"></use>
                <use fill="#FFFFFF" fill-rule="evenodd" xlink:href="#path-4"></use>
            </g>
            <g id="Attributes-(Future-Function)" transform="translate(175.000000, 2630.000000)" fill="#F1AC2B">
                <g id="logo/sustainable" transform="translate(192.000000, 0.000000)">
                    <g id="Logo-JSQI-Quasi-Drug-EXCIPIENT" transform="translate(2.560000, 8.909091)">
                        <path d="M69.95968,54.81 C58.22592,48.2898182 45.14816,54.0412727 44.59776,54.2894545 L44.16896,54.4829091 L44.22656,54.9461818 C44.27776,55.37 45.24032,62.6398182 50.00192,69.118 L51.66592,69.118 C47.27552,63.5536364 45.88032,57.0538182 45.57184,55.2656364 C47.94752,54.3314545 59.34848,50.3694545 69.33504,55.9210909 C75.31904,59.248 78.52544,64.7270909 80.22528,69.118 L81.6448,69.118 C79.936,64.4661818 76.55296,58.4754545 69.95968,54.81" id="Fill-1"></path>
                        <path d="M79.68896,28.9316364 L79.31136,28.6567273 L78.93248,28.9329091 C78.54848,29.2141818 70.95936,34.9172727 68.50048,44.1509091 L69.59232,45.0990909 C71.51872,37.0554545 77.71264,31.5598182 79.3152,30.2552727 C80.92288,31.5509091 87.14752,37.0172727 89.0496,45.0227273 L90.08256,43.8556364 C87.58144,34.7989091 80.0704,29.2103636 79.68896,28.9316364" id="Fill-2"></path>
                        <path d="M99.24224,39.4456364 L98.99008,39.0523636 L98.53568,39.1732727 C97.99808,39.3183636 85.3248,42.8374545 80.82304,54.2996364 C79.54816,57.5450909 79.2192,60.7256364 79.38304,63.6427273 L80.64768,62.384 C80.62848,59.9505455 80.992,57.3669091 82.016,54.7616364 C85.80992,45.1016364 96.1024,41.2885455 98.40896,40.5427273 C99.19616,41.9198182 101.62048,46.5958182 102.11584,52.3574545 L103.43424,52.3969091 C102.88384,45.2581818 99.4496,39.7701818 99.24224,39.4456364" id="Fill-3"></path>
                        <path d="M78.76096,64.9727273 C79.12064,61.7094545 78.89408,58.0452727 77.42464,54.2996364 C72.9216,42.8374545 60.2496,39.3183636 59.712,39.1732727 L59.25888,39.0523636 L59.00544,39.4456364 C58.79552,39.7727273 55.296,45.3727273 54.79936,52.6183636 L56.12032,52.5038182 C56.58752,46.6772727 59.0464,41.9338182 59.84128,40.5427273 C62.14656,41.2885455 72.43776,45.1029091 76.23168,54.7616364 C77.37984,57.6838182 77.70624,60.5843636 77.5808,63.2698182 L78.76096,64.9727273" id="Fill-4"></path>
                        <path d="M88.288,54.81 C83.6608,57.3821818 80.6272,61.096 78.6304,64.6901818 L79.4944,65.8738182 C81.3952,62.2618182 84.3392,58.4627273 88.91392,55.9210909 C98.90304,50.3694545 110.30272,54.3314545 112.67712,55.2656364 C112.33792,57.2269091 110.7008,64.8556364 105.21728,70.7038182 L106.98112,70.7038182 C112.83968,63.8896364 113.9648,55.4056364 114.02112,54.9461818 L114.07872,54.4829091 L113.64992,54.2894545 C113.09952,54.0412727 100.02432,48.2910909 88.288,54.81" id="Fill-5"></path>
                        <path d="M36.01024,104.151091 C35.6672,104.151091 35.32288,104.013636 35.072,103.742545 C24.80384,92.7143636 19.1488,78.358 19.1488,63.3207273 C19.1488,40.3709091 32.64768,19.2232727 53.53856,9.44363636 C54.17856,9.142 54.94144,9.41690909 55.24096,10.0532727 C55.54176,10.6883636 55.26784,11.4469091 54.62784,11.746 C34.6304,21.1081818 21.7088,41.3521818 21.7088,63.3207273 C21.7088,77.7152727 27.12064,91.4569091 36.94976,102.014182 C37.43104,102.529636 37.39904,103.334 36.88064,103.812545 C36.63488,104.039091 36.32256,104.151091 36.01024,104.151091" id="Fill-6"></path>
                        <path d="M121.89568,104.263091 C121.58336,104.263091 121.27104,104.149818 121.024,103.922 C120.5056,103.443455 120.47744,102.637818 120.95872,102.123636 C130.85312,91.5510909 136.30336,77.7712727 136.30336,63.3207273 C136.30336,41.3534545 123.38048,21.1094545 103.38304,11.746 C102.74304,11.4469091 102.46912,10.6883636 102.7712,10.0532727 C103.07072,9.41690909 103.83232,9.14327273 104.4736,9.44363636 C125.36448,19.2245455 138.86336,40.3721818 138.86336,63.3207273 C138.86336,78.4165455 133.1712,92.8123636 122.83392,103.857091 C122.58048,104.126909 122.23872,104.263091 121.89568,104.263091" id="Fill-7"></path>
                        <path d="M64.51968,9.64727273 L65.32864,8.39872727 C65.97504,8.95872727 66.56384,9.23236364 67.30496,9.08727273 C68.13312,8.92436364 68.59008,8.26381818 68.35584,7.09036364 L67.22048,1.37072727 L68.81408,1.05763636 L69.96096,6.82690909 C70.16704,7.86290909 70.00704,8.69909091 69.5936,9.31254545 C69.18144,9.926 68.49152,10.3332727 67.61216,10.5063636 C66.25536,10.7723636 65.25312,10.3205455 64.51968,9.64727273" id="Fill-8"></path>
                        <path d="M71.4496,8.30963636 L72.32384,7.13109091 C73.22752,7.81327273 74.12224,8.17727273 75.22048,8.10727273 C76.192,8.04490909 76.7744,7.54854545 76.73216,6.888 L76.73088,6.86254545 C76.68992,6.22745455 76.30976,5.908 74.624,5.63181818 C72.69248,5.29709091 71.58272,4.80581818 71.47648,3.16781818 L71.4752,3.14236364 C71.37664,1.61890909 72.58624,0.482363636 74.3616,0.369090909 C75.66464,0.286363636 76.72448,0.613454545 77.67808,1.28036364 L76.91264,2.51490909 C76.06784,1.96890909 75.24352,1.70290909 74.4256,1.75509091 C73.50528,1.81363636 72.99968,2.31890909 73.0368,2.90309091 L73.03936,2.92854545 C73.08288,3.61327273 73.51168,3.89327273 75.26272,4.18854545 C77.18272,4.52581818 78.19648,5.13672727 78.29248,6.60927273 L78.29376,6.63472727 C78.40128,8.29945455 77.14944,9.37363636 75.27168,9.49327273 C73.90464,9.58109091 72.58496,9.19290909 71.4496,8.30963636" id="Fill-9"></path>
                        <path d="M85.66656,7.97745455 L84.25472,6.51381818 L85.37216,5.47018182 L86.79936,7.03945455 C87.12704,6.58509091 87.3344,6.03018182 87.39712,5.39636364 L87.39968,5.37090909 C87.56736,3.64890909 86.44352,2.11018182 84.67328,1.93963636 C82.90304,1.77036364 81.53344,3.04436364 81.36576,4.76636364 L81.3632,4.79181818 C81.19552,6.51381818 82.31808,8.05254545 84.08832,8.22181818 C84.67456,8.27909091 85.1968,8.18872727 85.66656,7.97745455 Z M87.69408,10.1410909 L86.71744,9.08854545 C85.9136,9.548 84.95488,9.76309091 83.9232,9.66381818 C81.184,9.40036364 79.4752,7.154 79.7184,4.65945455 L79.72096,4.634 C79.96288,2.13945455 82.10048,0.235454545 84.83968,0.498909091 C87.5776,0.762363636 89.28768,3.00872727 89.04448,5.50327273 L89.04192,5.52872727 C88.94336,6.54181818 88.52096,7.448 87.87328,8.16454545 L88.80896,9.12290909 L87.69408,10.1410909 L87.69408,10.1410909 Z" id="Fill-10"></path>
                        <polyline id="Fill-11" points="91.93728 1.73854545 93.472 2.086 91.49056 10.7723636 89.95456 10.4261818 91.93728 1.73854545"></polyline>
                        <path d="M51.34592,113.982909 L50.6304,112.081455 L52.07296,111.563455 L52.75904,113.566727 C53.2416,113.277818 53.65376,112.850182 53.96352,112.292727 L53.97504,112.271091 C54.81344,110.755273 54.39616,108.898364 52.8384,108.045636 C51.27936,107.191636 49.51296,107.822909 48.67456,109.34 L48.66048,109.360364 C47.8208,110.877455 48.23808,112.734364 49.7984,113.587091 C50.31168,113.868364 50.83008,113.991818 51.34592,113.982909 Z M52.3456,116.768909 L51.86688,115.416 C50.94528,115.522909 49.97888,115.340909 49.07264,114.844545 C46.66112,113.524727 45.98528,110.787091 47.20384,108.591636 L47.21408,108.57 C48.43136,106.374545 51.15392,105.468364 53.56288,106.786909 C55.9744,108.106727 56.64768,110.844364 55.43296,113.039818 L55.42144,113.061455 C54.92736,113.954909 54.17728,114.619273 53.29792,115.022727 L53.77408,116.272545 L52.3456,116.768909 L52.3456,116.768909 Z" id="Fill-12"></path>
                        <path d="M55.82208,115.304 L57.28128,111.283455 L58.73664,111.805273 L57.43616,115.395636 C57.08032,116.376909 57.37472,117.103636 58.24128,117.414182 C59.08352,117.717091 59.88224,117.354364 60.2368,116.371818 L61.52832,112.804364 L62.99648,113.331273 L60.70784,119.650364 L59.23968,119.124727 L59.59552,118.143455 C58.9696,118.595273 58.19392,118.898182 57.20448,118.545636 C55.77344,118.032727 55.2896,116.776545 55.82208,115.304" id="Fill-13"></path>
                        <path d="M67.20384,118.72 L67.3024,118.273273 C66.94912,118.039091 66.46144,117.813818 65.86368,117.680182 C64.8896,117.465091 64.22272,117.747636 64.06912,118.431091 L64.06272,118.456545 C63.92192,119.089091 64.4032,119.574 65.12768,119.734364 C66.12736,119.954545 67.01696,119.552364 67.20384,118.72 Z M62.56384,118.189273 L62.56896,118.163818 C62.8864,116.747273 64.1664,116.301818 65.77792,116.658182 C66.5152,116.822364 67.0144,117.048909 67.49056,117.323818 L67.5264,117.162182 C67.73376,116.231818 67.27168,115.606909 66.20928,115.372727 C65.47328,115.209818 64.88704,115.248 64.23168,115.363818 L64.08448,114.093636 C64.89216,113.933273 65.65376,113.879818 66.7008,114.112727 C67.68768,114.331636 68.36736,114.755455 68.7232,115.329455 C69.10464,115.909818 69.17504,116.655636 68.98176,117.512182 L68.11136,121.399091 L66.6368,121.072 L66.82112,120.252364 C66.25152,120.687636 65.46944,120.957455 64.45696,120.733455 C63.22176,120.458545 62.26816,119.505273 62.56384,118.189273 L62.56384,118.189273 Z" id="Fill-14"></path>
                        <path d="M69.46432,120.724545 L70.26432,119.761091 C70.94272,120.383455 71.68896,120.746182 72.37632,120.818727 C73.0368,120.891273 73.45024,120.653273 73.49888,120.210364 L73.50272,120.184909 C73.55776,119.666909 72.864,119.413636 72.10112,119.087818 C71.13984,118.702182 70.07744,118.179091 70.21312,116.912727 L70.21696,116.887273 C70.3552,115.609455 71.4944,114.952727 72.83072,115.095273 C73.67168,115.185636 74.55744,115.575091 75.21664,116.121091 L74.48832,117.143091 C73.88032,116.679818 73.2224,116.365455 72.66048,116.305636 C72.06272,116.242 71.68768,116.496545 71.64672,116.863091 L71.64544,116.887273 C71.59168,117.382364 72.29312,117.662364 73.056,117.999636 C74.0032,118.409455 75.06176,118.970727 74.93248,120.172182 L74.92864,120.197636 C74.77632,121.602727 73.6064,122.180545 72.20608,122.030364 C71.25248,121.927273 70.23104,121.485636 69.46432,120.724545" id="Fill-15"></path>
                        <path d="M76.36352,112.992727 L78.02624,113.042364 L77.98144,114.502182 L76.32,114.453818 L76.36352,112.992727 Z M76.3392,115.486 L77.89952,115.530545 L77.70112,122.242909 L76.1408,122.197091 L76.3392,115.486 L76.3392,115.486 Z" id="Fill-16"></path>
                        <polyline id="Fill-17" points="79.00672 117.620364 82.7904 117.476545 82.84928 118.989818 79.0656 119.133636 79.00672 117.620364"></polyline>
                        <path d="M85.184,114.419455 L86.17984,120.398727 L87.9232,120.112364 C89.7792,119.806909 90.78528,118.363636 90.50112,116.642909 L90.49728,116.617455 C90.20928,114.896727 88.78592,113.827636 86.92992,114.131818 L85.184,114.419455 Z M83.39712,113.267636 L86.6944,112.725455 C89.47328,112.268545 91.71072,113.850545 92.12032,116.324727 L92.12544,116.348909 C92.5376,118.825636 90.93632,121.063091 88.15616,121.518727 L84.85888,122.062182 L83.39712,113.267636 L83.39712,113.267636 Z" id="Fill-18"></path>
                        <path d="M92.5696,113.762727 L94.06848,113.318545 L94.5024,114.769455 C94.61888,113.687636 95.168,112.805636 96.32384,112.518 L96.79232,114.077091 L96.70528,114.102545 C95.40608,114.489455 94.75072,115.599273 95.26144,117.304727 L96,119.756 L94.5024,120.200182 L92.5696,113.762727" id="Fill-19"></path>
                        <path d="M98.47168,116.463455 L96.81024,112.518 L98.24,111.923636 L99.72352,115.446545 C100.128,116.408727 100.84096,116.747273 101.69088,116.393455 C102.51648,116.049818 102.85824,115.244182 102.45248,114.282 L100.9792,110.782 L102.42048,110.183818 L105.0304,116.384545 L103.5904,116.982727 L103.18592,116.020545 C103.03104,116.774 102.66496,117.519818 101.696,117.923273 C100.29056,118.508727 99.08096,117.908 98.47168,116.463455" id="Fill-20"></path>
                        <path d="M109.34656,109.734545 L109.33504,109.712909 C108.7744,108.769818 107.61344,108.595455 106.688,109.137636 C105.76256,109.682364 105.40672,110.733636 105.97248,111.688182 L105.984,111.709818 C106.54464,112.651636 107.6672,112.865455 108.58368,112.327091 C109.50784,111.784909 109.9072,110.676364 109.34656,109.734545 Z M107.46112,116.594545 L107.36512,115.305273 C108.22016,115.320545 109.00096,115.157636 109.79328,114.691818 C110.98496,113.991818 111.27552,113.006727 110.5856,111.844727 L110.32704,111.406909 C110.20544,112.305455 109.85984,113.100909 108.90112,113.663455 C107.52384,114.474182 105.6576,114.209455 104.6464,112.510364 L104.63488,112.488727 C103.61856,110.778182 104.30848,109.014182 105.66272,108.217455 C106.64448,107.640909 107.51872,107.733818 108.28928,108.004909 L107.77344,107.139455 L109.10848,106.355455 L111.84512,110.958909 C112.42368,111.935091 112.59904,112.805636 112.40064,113.574364 C112.18432,114.410545 111.52,115.141091 110.47168,115.757091 C109.51296,116.319636 108.47744,116.603455 107.46112,116.594545 L107.46112,116.594545 Z" id="Fill-21"></path>
                        <polyline id="Fill-22" points="155.95392 91.0216364 138.74176 91.0216364 142.96576 64.2090909 155.95392 64.2090909 147.488 77.6147273 155.95392 91.0216364"></polyline>
                        <polyline id="Fill-23" points="1.17376 91.0216364 18.38464 91.0216364 14.15936 64.2090909 1.17376 64.2090909 9.63712 77.6147273 1.17376 91.0216364"></polyline>
                        <path d="M81.86368,74.3234545 L76.6208,74.3234545 L76.6208,78.5425455 L82.04544,78.5425455 C82.96192,78.5425455 83.95904,78.5094545 84.59264,77.7318182 C84.77568,77.5167273 85.024,77.1030909 85.024,76.4081818 C85.024,76.1930909 85.00864,75.6470909 84.608,75.1507273 C83.94368,74.3234545 82.81216,74.3234545 81.86368,74.3234545" id="Fill-24"></path>
                        <path d="M133.93024,74.3234545 L129.12128,74.3234545 L129.12128,84.6147273 L127.456,84.6147273 L127.456,74.3234545 L122.66368,74.3234545 L122.66368,72.9336364 L133.93024,72.9336364 L133.93024,74.3234545 Z M120.80128,84.6147273 L119.16928,84.6147273 L109.96864,74.9521818 C109.96864,74.9521818 110.00064,83.7543636 110.00064,84.6147273 L108.4032,84.6147273 L108.4032,72.9336364 L110.11712,72.9336364 L119.25376,82.5796364 C119.25376,82.5796364 119.20384,73.5292727 119.20384,72.9336364 L120.80128,72.9336364 L120.80128,84.6147273 Z M105.64224,84.6147273 L94.37696,84.6147273 L94.37696,72.9336364 L105.2096,72.9336364 L105.2096,74.3730909 L96.04096,74.3730909 L96.04096,77.8476364 L104.97664,77.8476364 L104.97664,79.2374545 L96.04096,79.2374545 L96.04096,83.1765455 L105.64224,83.1765455 L105.64224,84.6147273 Z M88.98432,84.6147273 L90.6816,84.6147273 L90.6816,72.9336364 L88.98432,72.9336364 L88.98432,84.6147273 Z M85.60768,79.1381818 C84.59264,79.9158182 83.4944,79.9323636 82.27968,79.9323636 L76.63872,79.9323636 L76.63872,84.6147273 L74.94144,84.6147273 L74.94144,72.9336364 L82.31168,72.9336364 C83.36128,72.9336364 85.22496,73.0494545 86.24,74.5054545 C86.63936,75.0845455 86.83776,75.796 86.83776,76.5074545 C86.83776,76.9707273 86.75584,78.2778182 85.60768,79.1381818 Z M69.58336,84.6147273 L71.28064,84.6147273 L71.28064,72.9336364 L69.58336,72.9336364 L69.58336,84.6147273 Z M60.34816,84.9125455 C56.35456,84.9125455 53.22624,82.8609091 53.22624,78.6914545 C53.22624,75.0514545 55.872,72.5861818 60.31488,72.5861818 C63.1104,72.5861818 65.57312,73.5292727 66.92096,75.978 L65.14048,76.3585455 C64.22528,74.6543636 62.2784,74.0421818 60.38272,74.0421818 C57.7856,74.0421818 54.99008,75.1838182 54.99008,78.6749091 C54.99008,81.9509091 57.43616,83.4565455 60.58112,83.4565455 C62.1952,83.4565455 64.34176,83.0594545 65.40672,81.0574545 L67.17056,81.4214545 C65.78944,84.2672727 62.81088,84.9125455 60.34816,84.9125455 Z M50.23232,84.6147273 L45.40544,79.5021818 L40.61312,84.6147273 L38.33344,84.6147273 L44.34048,78.4267273 L39.0656,72.9336364 L41.36192,72.9336364 L45.42336,77.3512727 L49.53344,72.9336364 L51.81312,72.9336364 L46.4384,78.4101818 L52.57856,84.6147273 L50.23232,84.6147273 Z M37.35168,84.6147273 L26.08768,84.6147273 L26.08768,72.9336364 L36.91904,72.9336364 L36.91904,74.3730909 L27.7504,74.3730909 L27.7504,77.8476364 L36.68736,77.8476364 L36.68736,79.2374545 L27.7504,79.2374545 L27.7504,83.1765455 L37.35168,83.1765455 L37.35168,84.6147273 Z M15.9168,63.6669091 L21.0368,94.6158182 L136.26368,94.6158182 L141.38368,63.6669091 L15.9168,63.6669091 L15.9168,63.6669091 Z" id="Fill-25"></path>
                    </g>
                </g>
            </g>
        </g>
    </g>
</svg>