<svg xmlns="http://www.w3.org/2000/svg" width="20.677" height="30.139" viewBox="0 0 20.677 30.139">
  <path id="location" d="M10.239,30.139h0A89.307,89.307,0,0,1,2,18.342a15.3,15.3,0,0,1-1.983-7.2A10.373,10.373,0,0,1,2.753,3.467,11.2,11.2,0,0,1,10.3,0a11.528,11.528,0,0,1,2.484.429,9.156,9.156,0,0,1,4.393,2.609,4.8,4.8,0,0,0,.556.453A8.83,8.83,0,0,1,20.3,8.217a14.755,14.755,0,0,1,.381,2.891,14.99,14.99,0,0,1-2.117,7.344A88.484,88.484,0,0,1,10.24,30.138ZM9.782,2.511A7.025,7.025,0,0,0,4.69,4.71C2.4,6.938,2.043,11.073,2.045,11.11a17.486,17.486,0,0,0,1.289,4.885C5.522,20.2,10.093,26.9,10.139,26.97c.038-.051,4.564-6.178,7.022-10.3a12.784,12.784,0,0,0,1.252-5.541c0-.049-.452-4.962-3.256-7.115A8.586,8.586,0,0,0,10.273,2.5c-.156,0-.313,0-.469.013Zm.507,13.8h-.05c-2.92,0-4.663-1.8-4.663-4.8s2.4-4.437,4.775-4.537a4.7,4.7,0,0,1,3.189,8A4.584,4.584,0,0,1,10.289,16.306Zm-.208-6.968a2.289,2.289,0,0,0,0,4.578c.066,0,.132,0,.2-.009.046,0,.094,0,.14,0a2.113,2.113,0,0,0,2.106-2.255,2.042,2.042,0,0,0-2.023-2.3c-.04,0-.081,0-.121,0A2.413,2.413,0,0,0,10.081,9.339Z" transform="translate(0)" fill="#fff"/>
</svg>
