<svg xmlns="http://www.w3.org/2000/svg" width="37.695" height="29.711" viewBox="0 0 37.695 29.711">
  <path id="Shape" d="M0,29.711H0A29.7,29.7,0,0,0,.92,25.934c.675-3.367,1.515-7.557,4.566-11.222,3.571-4.289,9.427-7.036,17.9-8.4L23.322,0a.453.453,0,0,1,.05.036C24.515.905,30.58,5.549,37.7,11.6c-5.162,4.093-14.128,11.54-14.218,11.615l-.19-6.1c-.677-.028-1.354-.043-2.01-.043C8.4,17.066,4.764,22.559,1.244,27.871.841,28.479.425,29.108,0,29.711ZM25.448,4.221l-.034,3.822c-.071.006-7.237.606-12.661,3.92a24.488,24.488,0,0,0-6.321,5.488,12.075,12.075,0,0,0-1.812,2.813h.005a23.963,23.963,0,0,1,15.509-5.482,22.693,22.693,0,0,1,5.384.589l-.031,3.369,9.02-7.355Z" transform="translate(-0.002 0)" fill="#fff"/>
</svg>
