<svg xmlns="http://www.w3.org/2000/svg" width="34.833" height="31.488" viewBox="0 0 34.833 31.488">
  <path id="Rounded_Rectangle_1_copy" d="M28.281,31.488H6.55a.927.927,0,0,1,0-1.853l6.195,0a.978.978,0,0,1-.071-.352V26.542a.989.989,0,0,1,1.978,0v2.746a.974.974,0,0,1-.071.351h5.791a.9.9,0,0,1-.132-.448V26.3a.916.916,0,0,1,1.832,0v2.891a.889.889,0,0,1-.133.448h6.343a.925.925,0,0,1,0,1.85Zm2.489-6.726H4.064C1.823,24.762,0,23.466,0,21.874V2.889C0,1.3,1.823,0,4.064,0H30.769c2.241,0,4.064,1.3,4.064,2.889V21.874C34.833,23.466,33.01,24.762,30.769,24.762ZM2.345,20.276V21c0,.076,0,.148,0,.218,0,.6,0,.987.228,1.222s.665.314,1.572.314H31.621c.765,0,1.118-.064,1.26-.229.124-.144.092-.36.043-.687A5.408,5.408,0,0,1,32.849,21l0-.725ZM18.4,2.214V18.419H32.849V3.675a4.619,4.619,0,0,1,.08-.821c.041-.242.066-.387-.014-.481-.113-.134-.424-.156-1.3-.156Zm-14.254,0c-.952,0-1.423.023-1.63.232-.174.175-.172.471-.17,1.008v.005c0,.068,0,.14,0,.215V18.419H16.565V2.216ZM17.566,22.077h-.25a.662.662,0,0,1,0-1.323h.25a.662.662,0,1,1,0,1.324Zm-3.51-4.232a.881.881,0,0,1-.188-.02c-.02-.038-2.028-3.753-4.682-3.753-2.629,0-4.59,3.633-4.61,3.669a.955.955,0,0,1-.873-.36.988.988,0,0,1,.085-.962,5.447,5.447,0,0,1,5.145-3.665c.068,0,.136,0,.2,0s.139,0,.207,0a5.874,5.874,0,0,1,5.562,3.988.875.875,0,0,1-.217.833A.887.887,0,0,1,14.056,17.845Zm16.533-.007a.888.888,0,0,1-.188-.02c-.02-.038-2.028-3.754-4.682-3.754-2.629,0-4.59,3.633-4.61,3.669a.955.955,0,0,1-.873-.36.988.988,0,0,1,.085-.962,5.446,5.446,0,0,1,5.141-3.66c.069,0,.139,0,.208,0s.137,0,.206,0a5.873,5.873,0,0,1,5.563,3.987.88.88,0,0,1-.852,1.1ZM9.2,12.123a4.045,4.045,0,1,1,4.045-4.045A4.05,4.05,0,0,1,9.2,12.123h0Zm0-6.676,0,0a2.627,2.627,0,1,0,1.862.769A2.63,2.63,0,0,0,9.2,5.45ZM25.734,12.12a4.042,4.042,0,1,1,2.861-1.184,4.052,4.052,0,0,1-2.861,1.184Zm0-6.674a2.629,2.629,0,1,0,2.629,2.629,2.632,2.632,0,0,0-2.629-2.629Z" fill="#fff"/>
</svg>
